<mxfile host="Electron" agent="Mozilla/5.0 (Windows NT 10.0; Win64; x64) AppleWebKit/537.36 (KHTML, like Gecko) draw.io/26.0.16 Chrome/132.0.6834.196 Electron/34.2.0 Safari/537.36" version="26.0.16">
  <diagram name="Page-1" id="lhY0leqALbx22MI9cXDm">
    <mxGraphModel dx="1434" dy="836" grid="1" gridSize="10" guides="1" tooltips="1" connect="1" arrows="1" fold="1" page="1" pageScale="1" pageWidth="827" pageHeight="1169" math="0" shadow="0">
      <root>
        <mxCell id="0" />
        <mxCell id="1" parent="0" />
        <mxCell id="wxQBJqKY_8iM5zLKmnhU-1" value="&lt;font style=&quot;font-size: 19px;&quot;&gt;&lt;b style=&quot;&quot;&gt;Sources&lt;/b&gt;&lt;/font&gt;" style="rounded=0;whiteSpace=wrap;html=1;fillColor=none;strokeColor=none;" parent="1" vertex="1">
          <mxGeometry x="20" y="50" width="120" height="60" as="geometry" />
        </mxCell>
        <mxCell id="wxQBJqKY_8iM5zLKmnhU-2" value="" style="rounded=0;whiteSpace=wrap;html=1;fillColor=none;strokeWidth=3;" parent="1" vertex="1">
          <mxGeometry x="20" y="100" width="120" height="540" as="geometry" />
        </mxCell>
        <mxCell id="wxQBJqKY_8iM5zLKmnhU-3" value="&lt;font style=&quot;font-size: 14px;&quot;&gt;&lt;b&gt;CRM&lt;/b&gt;&lt;/font&gt;" style="image;aspect=fixed;html=1;points=[];align=center;fontSize=12;image=img/lib/azure2/general/Folder_Blank.svg;" parent="1" vertex="1">
          <mxGeometry x="41.07" y="180" width="73.93" height="60" as="geometry" />
        </mxCell>
        <mxCell id="wxQBJqKY_8iM5zLKmnhU-4" value="&lt;font style=&quot;font-size: 14px;&quot;&gt;&lt;b style=&quot;&quot;&gt;ERP&lt;/b&gt;&lt;/font&gt;" style="image;aspect=fixed;html=1;points=[];align=center;fontSize=12;image=img/lib/azure2/general/Folder_Blank.svg;" parent="1" vertex="1">
          <mxGeometry x="46" y="474" width="69" height="56.00000000000001" as="geometry" />
        </mxCell>
        <mxCell id="wxQBJqKY_8iM5zLKmnhU-5" value="" style="rounded=0;whiteSpace=wrap;html=1;fillColor=none;strokeWidth=3;" parent="1" vertex="1">
          <mxGeometry x="230" y="100" width="130" height="540" as="geometry" />
        </mxCell>
        <mxCell id="wxQBJqKY_8iM5zLKmnhU-6" value="&lt;b&gt;&lt;font style=&quot;font-size: 18px;&quot;&gt;Bronze Layer&lt;/font&gt;&lt;/b&gt;" style="rounded=0;whiteSpace=wrap;html=1;fillColor=#ffe6cc;strokeColor=#000000;strokeWidth=3;" parent="1" vertex="1">
          <mxGeometry x="235" y="30" width="120" height="60" as="geometry" />
        </mxCell>
        <mxCell id="wxQBJqKY_8iM5zLKmnhU-7" value="&lt;font style=&quot;font-size: 13px;&quot;&gt;crm_sales_details&lt;/font&gt;" style="rounded=1;whiteSpace=wrap;html=1;fillColor=#ffe6cc;strokeColor=#d79b00;" parent="1" vertex="1">
          <mxGeometry x="237" y="130" width="116" height="30" as="geometry" />
        </mxCell>
        <mxCell id="wxQBJqKY_8iM5zLKmnhU-8" value="&lt;span style=&quot;font-size: 13px;&quot;&gt;crm_prd_info&lt;/span&gt;" style="rounded=1;whiteSpace=wrap;html=1;fillColor=#ffe6cc;strokeColor=#d79b00;" parent="1" vertex="1">
          <mxGeometry x="237" y="200" width="116" height="30" as="geometry" />
        </mxCell>
        <mxCell id="wxQBJqKY_8iM5zLKmnhU-9" value="&lt;span style=&quot;font-size: 13px;&quot;&gt;crm_cust_info&lt;/span&gt;" style="rounded=1;whiteSpace=wrap;html=1;fillColor=#ffe6cc;strokeColor=#d79b00;" parent="1" vertex="1">
          <mxGeometry x="237" y="280" width="116" height="30" as="geometry" />
        </mxCell>
        <mxCell id="wxQBJqKY_8iM5zLKmnhU-12" style="edgeStyle=orthogonalEdgeStyle;rounded=0;orthogonalLoop=1;jettySize=auto;html=1;entryX=-0.008;entryY=0.202;entryDx=0;entryDy=0;entryPerimeter=0;" parent="1" source="wxQBJqKY_8iM5zLKmnhU-3" target="wxQBJqKY_8iM5zLKmnhU-5" edge="1">
          <mxGeometry relative="1" as="geometry">
            <Array as="points">
              <mxPoint x="140" y="209" />
              <mxPoint x="140" y="209" />
            </Array>
          </mxGeometry>
        </mxCell>
        <mxCell id="wxQBJqKY_8iM5zLKmnhU-13" value="&lt;span style=&quot;font-size: 13px;&quot;&gt;erp_cust_az12&lt;/span&gt;" style="rounded=1;whiteSpace=wrap;html=1;fillColor=#ffe6cc;strokeColor=#d79b00;" parent="1" vertex="1">
          <mxGeometry x="237" y="420" width="116" height="30" as="geometry" />
        </mxCell>
        <mxCell id="pgTNmdW799ACuelsquni-13" style="edgeStyle=orthogonalEdgeStyle;rounded=0;orthogonalLoop=1;jettySize=auto;html=1;" parent="1" source="wxQBJqKY_8iM5zLKmnhU-14" edge="1">
          <mxGeometry relative="1" as="geometry">
            <mxPoint x="430" y="502" as="targetPoint" />
          </mxGeometry>
        </mxCell>
        <mxCell id="wxQBJqKY_8iM5zLKmnhU-14" value="&lt;span style=&quot;font-size: 13px;&quot;&gt;erp_loc_a101&lt;/span&gt;" style="rounded=1;whiteSpace=wrap;html=1;fillColor=#ffe6cc;strokeColor=#d79b00;" parent="1" vertex="1">
          <mxGeometry x="237" y="487" width="116" height="30" as="geometry" />
        </mxCell>
        <mxCell id="wxQBJqKY_8iM5zLKmnhU-15" value="&lt;span style=&quot;font-size: 13px;&quot;&gt;erp_px_cat_g1v2&lt;/span&gt;" style="rounded=1;whiteSpace=wrap;html=1;fillColor=#ffe6cc;strokeColor=#d79b00;" parent="1" vertex="1">
          <mxGeometry x="237" y="560" width="116" height="30" as="geometry" />
        </mxCell>
        <mxCell id="wxQBJqKY_8iM5zLKmnhU-16" style="edgeStyle=orthogonalEdgeStyle;rounded=0;orthogonalLoop=1;jettySize=auto;html=1;entryX=0.031;entryY=0.074;entryDx=0;entryDy=0;entryPerimeter=0;" parent="1" edge="1">
          <mxGeometry relative="1" as="geometry">
            <mxPoint x="110.97" y="210" as="sourcePoint" />
            <mxPoint x="229.99999999999997" y="139.96000000000004" as="targetPoint" />
            <Array as="points">
              <mxPoint x="168.97" y="210" />
              <mxPoint x="168.97" y="140" />
            </Array>
          </mxGeometry>
        </mxCell>
        <mxCell id="wxQBJqKY_8iM5zLKmnhU-17" style="edgeStyle=orthogonalEdgeStyle;rounded=0;orthogonalLoop=1;jettySize=auto;html=1;entryX=0;entryY=0.75;entryDx=0;entryDy=0;" parent="1" source="wxQBJqKY_8iM5zLKmnhU-3" target="wxQBJqKY_8iM5zLKmnhU-9" edge="1">
          <mxGeometry relative="1" as="geometry">
            <Array as="points">
              <mxPoint x="170" y="210" />
              <mxPoint x="170" y="303" />
            </Array>
          </mxGeometry>
        </mxCell>
        <mxCell id="wxQBJqKY_8iM5zLKmnhU-21" style="edgeStyle=orthogonalEdgeStyle;rounded=0;orthogonalLoop=1;jettySize=auto;html=1;entryX=-0.062;entryY=0.744;entryDx=0;entryDy=0;entryPerimeter=0;" parent="1" source="wxQBJqKY_8iM5zLKmnhU-4" target="wxQBJqKY_8iM5zLKmnhU-5" edge="1">
          <mxGeometry relative="1" as="geometry" />
        </mxCell>
        <mxCell id="wxQBJqKY_8iM5zLKmnhU-22" style="edgeStyle=orthogonalEdgeStyle;rounded=0;orthogonalLoop=1;jettySize=auto;html=1;entryX=-0.031;entryY=0.619;entryDx=0;entryDy=0;entryPerimeter=0;" parent="1" source="wxQBJqKY_8iM5zLKmnhU-4" target="wxQBJqKY_8iM5zLKmnhU-5" edge="1">
          <mxGeometry relative="1" as="geometry" />
        </mxCell>
        <mxCell id="wxQBJqKY_8iM5zLKmnhU-23" style="edgeStyle=orthogonalEdgeStyle;rounded=0;orthogonalLoop=1;jettySize=auto;html=1;entryX=-0.062;entryY=0.893;entryDx=0;entryDy=0;entryPerimeter=0;" parent="1" source="wxQBJqKY_8iM5zLKmnhU-4" target="wxQBJqKY_8iM5zLKmnhU-5" edge="1">
          <mxGeometry relative="1" as="geometry" />
        </mxCell>
        <mxCell id="pgTNmdW799ACuelsquni-1" value="" style="rounded=0;whiteSpace=wrap;html=1;fillColor=none;strokeWidth=3;fontColor=#333333;strokeColor=#666666;" parent="1" vertex="1">
          <mxGeometry x="440" y="100" width="130" height="540" as="geometry" />
        </mxCell>
        <mxCell id="pgTNmdW799ACuelsquni-2" value="&lt;b&gt;&lt;font style=&quot;font-size: 18px;&quot;&gt;Bronze Layer&lt;/font&gt;&lt;/b&gt;" style="rounded=0;whiteSpace=wrap;html=1;fillColor=#f5f5f5;strokeColor=#666666;strokeWidth=3;fontColor=#333333;" parent="1" vertex="1">
          <mxGeometry x="445" y="30" width="120" height="60" as="geometry" />
        </mxCell>
        <mxCell id="pgTNmdW799ACuelsquni-3" value="&lt;font style=&quot;font-size: 13px;&quot;&gt;crm_sales_details&lt;/font&gt;" style="rounded=1;whiteSpace=wrap;html=1;fillColor=#f5f5f5;strokeColor=#666666;fontColor=#333333;" parent="1" vertex="1">
          <mxGeometry x="447" y="130" width="116" height="30" as="geometry" />
        </mxCell>
        <mxCell id="pgTNmdW799ACuelsquni-4" value="&lt;span style=&quot;font-size: 13px;&quot;&gt;crm_prd_info&lt;/span&gt;" style="rounded=1;whiteSpace=wrap;html=1;fillColor=#f5f5f5;strokeColor=#666666;fontColor=#333333;" parent="1" vertex="1">
          <mxGeometry x="447" y="200" width="116" height="30" as="geometry" />
        </mxCell>
        <mxCell id="pgTNmdW799ACuelsquni-5" value="&lt;span style=&quot;font-size: 13px;&quot;&gt;crm_cust_info&lt;/span&gt;" style="rounded=1;whiteSpace=wrap;html=1;fillColor=#f5f5f5;strokeColor=#666666;fontColor=#333333;" parent="1" vertex="1">
          <mxGeometry x="447" y="280" width="116" height="30" as="geometry" />
        </mxCell>
        <mxCell id="pgTNmdW799ACuelsquni-6" value="&lt;span style=&quot;font-size: 13px;&quot;&gt;erp_cust_az12&lt;/span&gt;" style="rounded=1;whiteSpace=wrap;html=1;fillColor=#f5f5f5;strokeColor=#666666;fontColor=#333333;" parent="1" vertex="1">
          <mxGeometry x="447" y="420" width="116" height="30" as="geometry" />
        </mxCell>
        <mxCell id="pgTNmdW799ACuelsquni-7" value="&lt;span style=&quot;font-size: 13px;&quot;&gt;erp_loc_a101&lt;/span&gt;" style="rounded=1;whiteSpace=wrap;html=1;fillColor=#f5f5f5;strokeColor=#666666;fontColor=#333333;" parent="1" vertex="1">
          <mxGeometry x="447" y="487" width="116" height="30" as="geometry" />
        </mxCell>
        <mxCell id="pgTNmdW799ACuelsquni-8" value="&lt;span style=&quot;font-size: 13px;&quot;&gt;erp_px_cat_g1v2&lt;/span&gt;" style="rounded=1;whiteSpace=wrap;html=1;fillColor=#f5f5f5;strokeColor=#666666;fontColor=#333333;" parent="1" vertex="1">
          <mxGeometry x="447" y="560" width="116" height="30" as="geometry" />
        </mxCell>
        <mxCell id="pgTNmdW799ACuelsquni-9" style="edgeStyle=orthogonalEdgeStyle;rounded=0;orthogonalLoop=1;jettySize=auto;html=1;entryX=-0.054;entryY=0.083;entryDx=0;entryDy=0;entryPerimeter=0;" parent="1" source="wxQBJqKY_8iM5zLKmnhU-7" target="pgTNmdW799ACuelsquni-1" edge="1">
          <mxGeometry relative="1" as="geometry" />
        </mxCell>
        <mxCell id="pgTNmdW799ACuelsquni-10" style="edgeStyle=orthogonalEdgeStyle;rounded=0;orthogonalLoop=1;jettySize=auto;html=1;entryX=-0.015;entryY=0.213;entryDx=0;entryDy=0;entryPerimeter=0;" parent="1" source="wxQBJqKY_8iM5zLKmnhU-8" target="pgTNmdW799ACuelsquni-1" edge="1">
          <mxGeometry relative="1" as="geometry" />
        </mxCell>
        <mxCell id="pgTNmdW799ACuelsquni-11" style="edgeStyle=orthogonalEdgeStyle;rounded=0;orthogonalLoop=1;jettySize=auto;html=1;entryX=-0.031;entryY=0.361;entryDx=0;entryDy=0;entryPerimeter=0;" parent="1" source="wxQBJqKY_8iM5zLKmnhU-9" target="pgTNmdW799ACuelsquni-1" edge="1">
          <mxGeometry relative="1" as="geometry" />
        </mxCell>
        <mxCell id="pgTNmdW799ACuelsquni-12" style="edgeStyle=orthogonalEdgeStyle;rounded=0;orthogonalLoop=1;jettySize=auto;html=1;entryX=-0.038;entryY=0.622;entryDx=0;entryDy=0;entryPerimeter=0;" parent="1" source="wxQBJqKY_8iM5zLKmnhU-13" target="pgTNmdW799ACuelsquni-1" edge="1">
          <mxGeometry relative="1" as="geometry" />
        </mxCell>
        <mxCell id="pgTNmdW799ACuelsquni-14" style="edgeStyle=orthogonalEdgeStyle;rounded=0;orthogonalLoop=1;jettySize=auto;html=1;entryX=-0.062;entryY=0.878;entryDx=0;entryDy=0;entryPerimeter=0;" parent="1" source="wxQBJqKY_8iM5zLKmnhU-15" target="pgTNmdW799ACuelsquni-1" edge="1">
          <mxGeometry relative="1" as="geometry" />
        </mxCell>
        <mxCell id="BGh7Ijj-1_ng5ExrQ866-1" value="" style="rounded=0;whiteSpace=wrap;html=1;fillColor=none;strokeWidth=3;fontColor=#333333;strokeColor=#666666;" vertex="1" parent="1">
          <mxGeometry x="640" y="100" width="130" height="540" as="geometry" />
        </mxCell>
        <mxCell id="BGh7Ijj-1_ng5ExrQ866-2" value="&lt;span style=&quot;font-size: 18px;&quot;&gt;&lt;b&gt;Gold Layer&lt;/b&gt;&lt;/span&gt;" style="rounded=0;whiteSpace=wrap;html=1;fillColor=#fff2cc;strokeColor=#d6b656;strokeWidth=3;gradientColor=#ffd966;" vertex="1" parent="1">
          <mxGeometry x="645" y="30" width="120" height="60" as="geometry" />
        </mxCell>
        <mxCell id="BGh7Ijj-1_ng5ExrQ866-6" value="&lt;span style=&quot;font-size: 13px;&quot;&gt;Gold.fact_sales&lt;/span&gt;" style="rounded=1;whiteSpace=wrap;html=1;fillColor=#fff2cc;strokeColor=#d6b656;gradientColor=#ffd966;" vertex="1" parent="1">
          <mxGeometry x="647" y="230" width="116" height="30" as="geometry" />
        </mxCell>
        <mxCell id="BGh7Ijj-1_ng5ExrQ866-7" value="&lt;span style=&quot;font-size: 13px;&quot;&gt;Gold.dim_customers&lt;/span&gt;" style="rounded=1;whiteSpace=wrap;html=1;fillColor=#fff2cc;strokeColor=#d6b656;gradientColor=#ffd966;" vertex="1" parent="1">
          <mxGeometry x="643.5" y="330" width="123" height="30" as="geometry" />
        </mxCell>
        <mxCell id="BGh7Ijj-1_ng5ExrQ866-8" value="&lt;span style=&quot;font-size: 13px;&quot;&gt;Gold.dim_products&lt;/span&gt;" style="rounded=1;whiteSpace=wrap;html=1;fillColor=#fff2cc;strokeColor=#d6b656;gradientColor=#ffd966;" vertex="1" parent="1">
          <mxGeometry x="643.5" y="420" width="123" height="30" as="geometry" />
        </mxCell>
        <mxCell id="BGh7Ijj-1_ng5ExrQ866-9" value="" style="endArrow=classic;html=1;rounded=0;entryX=0.023;entryY=0.269;entryDx=0;entryDy=0;entryPerimeter=0;jumpStyle=gap;" edge="1" parent="1" target="BGh7Ijj-1_ng5ExrQ866-1">
          <mxGeometry width="50" height="50" relative="1" as="geometry">
            <mxPoint x="570" y="150" as="sourcePoint" />
            <mxPoint x="620" y="200" as="targetPoint" />
          </mxGeometry>
        </mxCell>
        <mxCell id="BGh7Ijj-1_ng5ExrQ866-10" value="" style="endArrow=classic;html=1;rounded=0;entryX=0;entryY=0.63;entryDx=0;entryDy=0;entryPerimeter=0;jumpStyle=gap;" edge="1" parent="1" target="BGh7Ijj-1_ng5ExrQ866-1">
          <mxGeometry width="50" height="50" relative="1" as="geometry">
            <mxPoint x="570" y="220" as="sourcePoint" />
            <mxPoint x="610" y="290" as="targetPoint" />
          </mxGeometry>
        </mxCell>
        <mxCell id="BGh7Ijj-1_ng5ExrQ866-11" value="" style="endArrow=classic;html=1;rounded=0;entryX=0;entryY=0.75;entryDx=0;entryDy=0;jumpStyle=gap;" edge="1" parent="1" target="BGh7Ijj-1_ng5ExrQ866-7">
          <mxGeometry width="50" height="50" relative="1" as="geometry">
            <mxPoint x="570" y="300" as="sourcePoint" />
            <mxPoint x="610" y="350" as="targetPoint" />
          </mxGeometry>
        </mxCell>
        <mxCell id="BGh7Ijj-1_ng5ExrQ866-12" value="" style="endArrow=classic;html=1;rounded=0;jumpStyle=gap;entryX=-0.008;entryY=0.489;entryDx=0;entryDy=0;entryPerimeter=0;" edge="1" parent="1" target="BGh7Ijj-1_ng5ExrQ866-1">
          <mxGeometry width="50" height="50" relative="1" as="geometry">
            <mxPoint x="570" y="430" as="sourcePoint" />
            <mxPoint x="640" y="370" as="targetPoint" />
            <Array as="points">
              <mxPoint x="600" y="400" />
            </Array>
          </mxGeometry>
        </mxCell>
        <mxCell id="BGh7Ijj-1_ng5ExrQ866-13" value="" style="endArrow=classic;html=1;rounded=0;entryX=0;entryY=0.626;entryDx=0;entryDy=0;entryPerimeter=0;jumpStyle=gap;" edge="1" parent="1" target="BGh7Ijj-1_ng5ExrQ866-1">
          <mxGeometry width="50" height="50" relative="1" as="geometry">
            <mxPoint x="570" y="580" as="sourcePoint" />
            <mxPoint x="620" y="530" as="targetPoint" />
          </mxGeometry>
        </mxCell>
        <mxCell id="BGh7Ijj-1_ng5ExrQ866-14" value="" style="endArrow=classic;html=1;rounded=0;jumpStyle=gap;entryX=-0.023;entryY=0.472;entryDx=0;entryDy=0;entryPerimeter=0;" edge="1" parent="1" target="BGh7Ijj-1_ng5ExrQ866-1">
          <mxGeometry width="50" height="50" relative="1" as="geometry">
            <mxPoint x="570" y="510" as="sourcePoint" />
            <mxPoint x="630" y="350" as="targetPoint" />
          </mxGeometry>
        </mxCell>
      </root>
    </mxGraphModel>
  </diagram>
</mxfile>
